# xmcd CD database file
#
# Track frame offsets:
#	150
#	24863
#	45417
#	71437
#	100721
#	124444
#	143931
#	160528
#	177436
#	199646
#	225687
#	244362
#	258158
#	277588
#	300439
#
# Disc length: 4408 seconds
#
# Revision: 0
# Processed by: cddbd v1.5PL3 Copyright (c) Steve Scherf et al.
# Submitted via: CDex 1.60beta1
#
DISCID=bc11360f
DTITLE=Paris Washboard - Love for Sale
DYEAR=1996
DGENRE=Jazz
TTITLE0=Wolverine Blues
TTITLE1=Careless Love
TTITLE2=Limehouse Blues
TTITLE3=Blue Because of You
TTITLE4=Who's Sorry Now?
TTITLE5=Sweet and Lovely
TTITLE6=Grandpa's Spells
TTITLE7=Between the Devil and the Deep Blue Sea
TTITLE8=If Dreams Come True
TTITLE9=Spain
TTITLE10=Way Down Yonder in New Orleans
TTITLE11=Russian Lullaby
TTITLE12=En Aout a Saint-Germain-Des-Pres
TTITLE13=Michigan Water Blues
TTITLE14=Love for Sale
EXTD=YEAR: 1996
EXTT0=
EXTT1=
EXTT2=
EXTT3=
EXTT4=
EXTT5=
EXTT6=
EXTT7=
EXTT8=
EXTT9=
EXTT10=
EXTT11=
EXTT12=
EXTT13=
EXTT14=
PLAYORDER=
